<?xml version="1.0" encoding="utf-8"?>
<!-- Generator: Adobe Illustrator 16.2.1, SVG Export Plug-In . SVG Version: 6.00 Build 0)  -->
<!DOCTYPE svg PUBLIC "-//W3C//DTD SVG 1.1//EN" "http://www.w3.org/Graphics/SVG/1.1/DTD/svg11.dtd">
<svg version="1.1" id="Ebene_1" xmlns="http://www.w3.org/2000/svg" xmlns:xlink="http://www.w3.org/1999/xlink" x="0px" y="0px"
	 width="247.729px" height="101.625px" viewBox="0 0 247.729 101.625" enable-background="new 0 0 247.729 101.625"
	 xml:space="preserve">
<path fill="#222221" d="M1.837,0.338l19.427-0.34c0.375-0.006,0.661,0.082,0.86,0.267c0.198,0.185,0.301,0.456,0.307,0.815
	l0.052,2.929c0.005,0.328-0.11,0.628-0.349,0.897c-0.236,0.27-0.496,0.406-0.777,0.412L1.93,5.657
	C1.617,5.662,1.369,5.55,1.186,5.318c-0.185-0.23-0.279-0.542-0.286-0.933L0.849,1.457C0.843,1.129,0.932,0.861,1.116,0.654
	C1.3,0.449,1.54,0.343,1.837,0.338z"/>
<path fill="#222221" d="M38.675,0.338l19.427-0.34c0.375-0.006,0.661,0.082,0.86,0.267c0.198,0.185,0.301,0.456,0.307,0.815
	l0.052,2.929c0.005,0.328-0.11,0.628-0.349,0.897c-0.236,0.27-0.496,0.406-0.777,0.412L38.768,5.657
	c-0.312,0.005-0.561-0.107-0.744-0.339c-0.185-0.23-0.279-0.542-0.286-0.933l-0.051-2.929c-0.006-0.328,0.083-0.596,0.268-0.803
	C38.138,0.449,38.378,0.343,38.675,0.338z"/>
<path fill="#222221" d="M75.513,0.338l19.428-0.34c0.375-0.006,0.66,0.082,0.859,0.267s0.301,0.456,0.308,0.815l0.052,2.929
	c0.005,0.328-0.111,0.628-0.349,0.897s-0.497,0.406-0.778,0.412L75.606,5.657c-0.312,0.005-0.561-0.107-0.744-0.339
	c-0.185-0.23-0.279-0.542-0.287-0.933l-0.051-2.929c-0.006-0.328,0.084-0.596,0.268-0.803C74.976,0.449,75.216,0.343,75.513,0.338z"
	/>
<path fill="#222221" d="M112.351,0.338l19.428-0.34c0.375-0.006,0.66,0.082,0.859,0.267s0.301,0.456,0.308,0.815l0.052,2.929
	c0.005,0.328-0.111,0.628-0.349,0.897s-0.497,0.406-0.778,0.412l-19.426,0.339c-0.312,0.005-0.561-0.107-0.744-0.339
	c-0.185-0.23-0.279-0.542-0.287-0.933l-0.051-2.929c-0.006-0.328,0.084-0.596,0.268-0.803
	C111.813,0.449,112.054,0.343,112.351,0.338z"/>
<path fill="#222221" d="M149.188,0.338l19.428-0.34c0.375-0.006,0.66,0.082,0.859,0.267s0.301,0.456,0.308,0.815l0.052,2.929
	c0.005,0.328-0.111,0.628-0.349,0.897s-0.497,0.406-0.778,0.412l-19.426,0.339c-0.312,0.005-0.561-0.107-0.744-0.339
	c-0.185-0.23-0.279-0.542-0.287-0.933L148.2,1.457c-0.006-0.328,0.084-0.596,0.268-0.803C148.651,0.449,148.892,0.343,149.188,0.338
	z"/>
<path fill="#222221" d="M186.026,0.338l19.428-0.34c0.375-0.006,0.66,0.082,0.859,0.267s0.301,0.456,0.308,0.815l0.052,2.929
	c0.005,0.328-0.111,0.628-0.349,0.897s-0.497,0.406-0.778,0.412L186.12,5.657c-0.312,0.005-0.561-0.107-0.744-0.339
	c-0.185-0.23-0.279-0.542-0.287-0.933l-0.051-2.929c-0.006-0.328,0.084-0.596,0.268-0.803
	C185.489,0.449,185.729,0.343,186.026,0.338z"/>
<path fill="#222221" d="M222.865,0.338l19.427-0.34c0.375-0.006,0.661,0.082,0.86,0.267c0.198,0.185,0.301,0.456,0.308,0.815
	l0.051,2.929c0.006,0.328-0.11,0.628-0.348,0.897c-0.238,0.27-0.497,0.406-0.778,0.412l-19.427,0.339
	c-0.312,0.005-0.561-0.107-0.744-0.339c-0.184-0.23-0.279-0.542-0.286-0.933l-0.051-2.929c-0.006-0.328,0.083-0.596,0.267-0.803
	C222.328,0.449,222.568,0.343,222.865,0.338z"/>
<path fill="#222221" d="M17.227,37.285c0.226-0.504,0.485-0.852,0.778-1.045c0.294-0.192,0.746-0.294,1.355-0.305
	c0.905-0.016,1.49,0.143,1.754,0.473c0.264,0.332,0.42,0.998,0.469,1.996l0.172,4.498l0.005,0.258
	c0.017,0.922-0.157,1.57-0.517,1.943c-0.361,0.373-0.979,0.568-1.854,0.583c-1.109,0.02-1.947-0.56-2.516-1.737
	c-0.081-0.171-0.146-0.311-0.195-0.419c-0.5-0.96-1.17-1.679-2.006-2.157c-0.837-0.477-1.817-0.706-2.942-0.687
	c-1.405,0.024-2.536,0.369-3.393,1.032c-0.855,0.664-1.274,1.503-1.257,2.519c0.025,1.438,2.028,2.535,6.012,3.294
	c0.674,0.129,1.207,0.229,1.6,0.301c3.01,0.604,5.199,1.565,6.566,2.885c1.367,1.32,2.07,3.145,2.111,5.473
	c0.051,2.874-0.888,5.105-2.813,6.694s-4.708,2.415-8.349,2.478c-1.422,0.025-2.693-0.047-3.812-0.215
	c-1.121-0.168-2.207-0.438-3.261-0.811c-0.243,0.412-0.526,0.709-0.853,0.895c-0.324,0.186-0.775,0.283-1.354,0.293
	c-0.984,0.018-1.676-0.158-2.072-0.526c-0.397-0.368-0.612-1.028-0.645-1.981l-0.189-5.505l-0.004-0.258
	C0,56.222,0.179,55.5,0.554,55.087c0.377-0.413,1.041-0.628,1.994-0.644c1.016-0.019,1.879,0.701,2.592,2.158
	c0.162,0.356,0.293,0.627,0.39,0.812c0.63,1.193,1.493,2.076,2.59,2.65c1.096,0.576,2.433,0.85,4.011,0.821
	c1.438-0.024,2.549-0.341,3.336-0.948c0.786-0.607,1.17-1.451,1.15-2.529c-0.028-1.671-1.855-2.905-5.479-3.701
	c-1.082-0.23-1.938-0.428-2.565-0.588c-3.045-0.744-5.163-1.703-6.356-2.879c-1.192-1.174-1.807-2.801-1.843-4.878
	C0.326,42.69,1.292,40.49,3.271,38.76c1.977-1.73,4.56-2.623,7.746-2.679c1.062-0.019,2.107,0.073,3.135,0.273
	C15.179,36.556,16.204,36.866,17.227,37.285z"/>
<path fill="#222221" d="M38.675,48.338l19.427-0.34c0.375-0.006,0.661,0.082,0.86,0.267c0.198,0.185,0.301,0.456,0.307,0.815
	l0.052,2.929c0.005,0.328-0.11,0.628-0.349,0.897c-0.236,0.27-0.496,0.406-0.777,0.412l-19.427,0.339
	c-0.312,0.005-0.561-0.107-0.744-0.339c-0.185-0.23-0.279-0.542-0.286-0.933l-0.051-2.929c-0.006-0.328,0.083-0.596,0.268-0.803
	C38.138,48.449,38.378,48.343,38.675,48.338z"/>
<path fill="#222221" d="M81.306,42.094l0.123,7.102l7.115-7.368c-0.814-0.079-1.389-0.3-1.723-0.661s-0.509-0.94-0.522-1.737
	c-0.017-0.922,0.194-1.589,0.633-2.003s1.188-0.631,2.251-0.649l5.741-0.101c1.062-0.018,1.819,0.172,2.272,0.57
	c0.451,0.398,0.686,1.059,0.702,1.98c0.015,0.859-0.196,1.508-0.634,1.945s-1.087,0.663-1.945,0.678l-0.539,0.01l-6.701,6.891
	c1.281,0.916,2.459,2.126,3.532,3.631s2.341,3.823,3.802,6.954l0.305-0.005l0.469-0.008c0.922-0.017,1.612,0.182,2.073,0.596
	c0.46,0.414,0.698,1.043,0.712,1.887c0.017,0.922-0.202,1.59-0.656,2.004c-0.453,0.414-1.211,0.631-2.273,0.649l-2.883,0.05
	c-1.266,0.022-2.304-0.811-3.114-2.5c-0.146-0.311-0.261-0.559-0.341-0.744c-1.07-2.17-2.045-3.84-2.924-5.013
	c-0.881-1.172-1.907-2.241-3.08-3.204l-2.166,2.146l0.076,4.383l0.375-0.007c0.844-0.015,1.492,0.188,1.945,0.61
	c0.452,0.423,0.686,1.047,0.7,1.875c0.017,0.922-0.203,1.59-0.657,2.004c-0.453,0.415-1.211,0.631-2.273,0.649l-6.046,0.105
	c-1.078,0.019-1.847-0.167-2.308-0.558c-0.46-0.391-0.697-1.055-0.714-1.991c-0.015-0.828,0.192-1.46,0.623-1.897
	c0.43-0.438,1.067-0.664,1.91-0.679l0.398-0.007l-0.306-17.482l-0.404,0.008c-0.842,0.015-1.484-0.193-1.928-0.623
	c-0.444-0.43-0.674-1.066-0.688-1.91c-0.017-0.922,0.198-1.59,0.644-2.004s1.207-0.63,2.287-0.648l6.046-0.105
	c1.046-0.02,1.808,0.172,2.284,0.568c0.476,0.398,0.721,1.059,0.737,1.98c0.015,0.844-0.196,1.488-0.634,1.934
	s-1.078,0.675-1.922,0.689L81.306,42.094z"/>
<path fill="#222221" d="M112.351,48.338l19.427-0.34c0.375-0.006,0.661,0.082,0.86,0.267c0.198,0.185,0.301,0.456,0.307,0.815
	l0.052,2.929c0.005,0.328-0.11,0.628-0.349,0.897c-0.236,0.27-0.496,0.406-0.777,0.412l-19.427,0.339
	c-0.312,0.005-0.561-0.107-0.744-0.339c-0.185-0.23-0.279-0.542-0.286-0.933l-0.051-2.929c-0.006-0.328,0.083-0.596,0.268-0.803
	C111.813,48.449,112.054,48.343,112.351,48.338z"/>
<path fill="#222221" d="M170.917,59.303l0.398-0.006c0.844-0.016,1.487,0.188,1.933,0.61c0.444,0.423,0.675,1.047,0.688,1.875
	c0.017,0.922-0.203,1.59-0.656,2.004c-0.453,0.415-1.212,0.63-2.273,0.649l-7.055,0.123c-1.078,0.019-1.847-0.167-2.307-0.558
	s-0.698-1.055-0.715-1.991c-0.016-0.906,0.199-1.559,0.646-1.957c0.445-0.398,1.208-0.607,2.286-0.627l0.819-0.014l-1.008-2.725
	l-10.123,0.176l-0.961,2.76l0.82-0.014c1.062-0.02,1.828,0.167,2.295,0.557c0.469,0.391,0.711,1.031,0.726,1.922
	c0.017,0.922-0.202,1.59-0.656,2.004s-1.212,0.631-2.274,0.648l-6.046,0.105c-1.077,0.02-1.847-0.17-2.308-0.568
	c-0.459-0.398-0.697-1.059-0.714-1.98c-0.015-0.828,0.193-1.46,0.623-1.897s1.067-0.663,1.911-0.679l0.398-0.006l5.975-17.592
	l-1.875,0.033c-1.062,0.018-1.828-0.172-2.295-0.57c-0.469-0.397-0.71-1.05-0.727-1.956c-0.016-0.921,0.203-1.589,0.657-2.004
	c0.454-0.414,1.212-0.631,2.274-0.649l8.787-0.153c1.391-0.024,2.381,0.709,2.969,2.198l0.002,0.07L170.917,59.303z M158.332,42.035
	l-3.226,9.949l6.797-0.119L158.332,42.035z"/>
<path fill="#222221" d="M186.026,48.338l19.427-0.34c0.375-0.006,0.661,0.082,0.86,0.267c0.198,0.185,0.301,0.456,0.307,0.815
	l0.052,2.929c0.005,0.328-0.11,0.628-0.349,0.897c-0.236,0.27-0.496,0.406-0.777,0.412l-19.427,0.339
	c-0.312,0.005-0.561-0.107-0.744-0.339c-0.185-0.23-0.279-0.542-0.286-0.933l-0.051-2.929c-0.006-0.328,0.083-0.596,0.268-0.803
	C185.489,48.449,185.729,48.343,186.026,48.338z"/>
<path fill="#222221" d="M232.697,52.643l4.239-13.365c0.266-0.879,0.645-1.523,1.137-1.93c0.492-0.408,1.152-0.618,1.979-0.633
	l3.651-0.063c1.062-0.019,1.828,0.171,2.297,0.569c0.467,0.398,0.709,1.059,0.726,1.979c0.015,0.844-0.196,1.488-0.635,1.934
	c-0.438,0.445-1.078,0.675-1.922,0.69l-0.374,0.006l0.984,17.47l0.398-0.007c0.844-0.015,1.479,0.189,1.909,0.611
	c0.429,0.422,0.651,1.047,0.665,1.875c0.017,0.922-0.194,1.59-0.633,2.004c-0.438,0.414-1.188,0.631-2.25,0.648l-5.273,0.092
	c-1.07,0.02-1.834-0.166-2.29-0.557s-0.691-1.055-0.708-1.992c-0.014-0.828,0.191-1.461,0.617-1.898
	c0.425-0.437,1.062-0.662,1.914-0.678l0.377-0.006l-0.601-14.289l-3.229,10.699c-0.236,0.801-0.58,1.381-1.034,1.74
	s-1.087,0.547-1.897,0.561s-1.457-0.15-1.939-0.494c-0.48-0.343-0.854-0.91-1.117-1.703l-3.577-10.58l-0.079,14.301l0.375-0.006
	c0.844-0.016,1.484,0.188,1.922,0.611c0.437,0.422,0.662,1.047,0.678,1.875c0.016,0.922-0.199,1.59-0.646,2.004
	s-1.192,0.629-2.239,0.648l-5.296,0.092c-1.047,0.019-1.8-0.172-2.261-0.57c-0.459-0.398-0.697-1.058-0.714-1.979
	c-0.015-0.828,0.189-1.46,0.612-1.897c0.422-0.438,1.055-0.664,1.898-0.678l0.375-0.007l0.374-17.493l-0.375,0.006
	c-0.844,0.016-1.492-0.192-1.944-0.622c-0.453-0.43-0.688-1.066-0.702-1.91c-0.017-0.921,0.202-1.589,0.657-2.004
	c0.453-0.414,1.211-0.63,2.273-0.649l3.652-0.063c0.812-0.015,1.467,0.17,1.965,0.552c0.498,0.383,0.911,1.016,1.239,1.9
	L232.697,52.643z"/>
<path fill="#222221" d="M1.837,96.338l19.427-0.34c0.375-0.006,0.661,0.082,0.86,0.267c0.198,0.185,0.301,0.456,0.307,0.815
	l0.052,2.929c0.005,0.328-0.11,0.628-0.349,0.897c-0.236,0.27-0.496,0.406-0.777,0.412L1.93,101.657
	c-0.312,0.005-0.561-0.107-0.744-0.339c-0.185-0.23-0.279-0.542-0.286-0.933l-0.051-2.929c-0.006-0.328,0.083-0.596,0.268-0.803
	C1.3,96.449,1.54,96.343,1.837,96.338z"/>
<path fill="#222221" d="M38.675,96.338l19.427-0.34c0.375-0.006,0.661,0.082,0.86,0.267c0.198,0.185,0.301,0.456,0.307,0.815
	l0.052,2.929c0.005,0.328-0.11,0.628-0.349,0.897c-0.236,0.27-0.496,0.406-0.777,0.412l-19.427,0.339
	c-0.312,0.005-0.561-0.107-0.744-0.339c-0.185-0.23-0.279-0.542-0.286-0.933l-0.051-2.929c-0.006-0.328,0.083-0.596,0.268-0.803
	C38.138,96.449,38.378,96.343,38.675,96.338z"/>
<path fill="#222221" d="M75.513,96.338l19.428-0.34c0.375-0.006,0.66,0.082,0.859,0.267s0.301,0.456,0.308,0.815l0.052,2.929
	c0.005,0.328-0.111,0.628-0.349,0.897s-0.497,0.406-0.778,0.412l-19.426,0.339c-0.312,0.005-0.561-0.107-0.744-0.339
	c-0.185-0.23-0.279-0.542-0.287-0.933l-0.051-2.929c-0.006-0.328,0.084-0.596,0.268-0.803
	C74.976,96.449,75.216,96.343,75.513,96.338z"/>
<path fill="#222221" d="M112.351,96.338l19.428-0.34c0.375-0.006,0.66,0.082,0.859,0.267s0.301,0.456,0.308,0.815l0.052,2.929
	c0.005,0.328-0.111,0.628-0.349,0.897s-0.497,0.406-0.778,0.412l-19.426,0.339c-0.312,0.005-0.561-0.107-0.744-0.339
	c-0.185-0.23-0.279-0.542-0.287-0.933l-0.051-2.929c-0.006-0.328,0.084-0.596,0.268-0.803
	C111.813,96.449,112.054,96.343,112.351,96.338z"/>
<path fill="#222221" d="M149.188,96.338l19.428-0.34c0.375-0.006,0.66,0.082,0.859,0.267s0.301,0.456,0.308,0.815l0.052,2.929
	c0.005,0.328-0.111,0.628-0.349,0.897s-0.497,0.406-0.778,0.412l-19.426,0.339c-0.312,0.005-0.561-0.107-0.744-0.339
	c-0.185-0.23-0.279-0.542-0.287-0.933l-0.051-2.929c-0.006-0.328,0.084-0.596,0.268-0.803
	C148.651,96.449,148.892,96.343,149.188,96.338z"/>
<path fill="#222221" d="M186.026,96.338l19.428-0.34c0.375-0.006,0.66,0.082,0.859,0.267s0.301,0.456,0.308,0.815l0.052,2.929
	c0.005,0.328-0.111,0.628-0.349,0.897s-0.497,0.406-0.778,0.412l-19.426,0.339c-0.312,0.005-0.561-0.107-0.744-0.339
	c-0.185-0.23-0.279-0.542-0.287-0.933l-0.051-2.929c-0.006-0.328,0.084-0.596,0.268-0.803
	C185.489,96.449,185.729,96.343,186.026,96.338z"/>
<path fill="#222221" d="M222.865,96.338l19.427-0.34c0.375-0.006,0.661,0.082,0.86,0.267c0.198,0.185,0.301,0.456,0.308,0.815
	l0.051,2.929c0.006,0.328-0.11,0.628-0.348,0.897c-0.238,0.27-0.497,0.406-0.778,0.412l-19.427,0.339
	c-0.312,0.005-0.561-0.107-0.744-0.339c-0.184-0.23-0.279-0.542-0.286-0.933l-0.051-2.929c-0.006-0.328,0.083-0.596,0.267-0.803
	C222.328,96.449,222.568,96.343,222.865,96.338z"/>
</svg>
